<svg width="70" height="17" viewBox="0 0 70 17" fill="none" xmlns="http://www.w3.org/2000/svg">
<path fill-rule="evenodd" clip-rule="evenodd" d="M3.1335 9.57013L4.41904 8.15961L7.18653 12.9982H10.9003L6.50805 5.74922L10.9003 0H7.02584L4.22264 4.0798L3.1335 5.73137V0H0V12.9982H3.1335V9.57013ZM17.712 12.1323C17.7953 12.5132 17.8906 12.8018 17.9977 12.9982H21.0062V12.8465C20.7444 12.3763 20.6075 11.6978 20.5956 10.811V6.53483C20.5777 5.48735 20.2117 4.66306 19.4975 4.06195C18.7833 3.46084 17.8102 3.16029 16.5782 3.16029C15.3463 3.16029 14.3315 3.45191 13.534 4.03517C12.7425 4.61842 12.3467 5.37725 12.3467 6.31165H15.3552C15.3552 5.60936 15.7123 5.25822 16.4265 5.25822C17.1942 5.25822 17.5781 5.70161 17.5781 6.58839V7.09725H16.6497C15.1737 7.09725 14.0488 7.36508 13.2751 7.90072C12.5014 8.43636 12.1146 9.22792 12.1146 10.2754C12.1146 11.1086 12.433 11.802 13.0698 12.3555C13.7066 12.903 14.4803 13.1768 15.3909 13.1768C16.3848 13.1768 17.1585 12.8286 17.712 12.1323ZM17.0425 10.7932C16.7985 10.9539 16.489 11.0342 16.114 11.0342C15.8283 11.0342 15.5933 10.9509 15.4088 10.7843C15.2243 10.6117 15.132 10.3885 15.132 10.1147C15.132 9.17435 15.6558 8.70418 16.7032 8.70418H17.5781V10.2486C17.471 10.451 17.2924 10.6325 17.0425 10.7932ZM31.237 8.23996C31.237 9.73975 30.8977 10.939 30.2193 11.8377C29.5467 12.7304 28.6361 13.1768 27.4875 13.1768C26.6007 13.1768 25.8716 12.8524 25.3003 12.2037V16.712H22.2918V3.33883H25.1039L25.1932 4.23157C25.7705 3.51738 26.5293 3.16029 27.4696 3.16029C28.6599 3.16029 29.5854 3.6007 30.246 4.48154C30.9067 5.35642 31.237 6.56161 31.237 8.09712V8.23996ZM28.2285 8.05248C28.2285 6.33843 27.7285 5.4814 26.7287 5.4814C26.0145 5.4814 25.5383 5.73732 25.3003 6.24915V10.0522C25.5622 10.5879 26.0442 10.8557 26.7465 10.8557C27.7047 10.8557 28.1987 10.0284 28.2285 8.37387V8.05248ZM36.7453 13.1768C37.8285 13.1768 38.6885 12.7691 39.3253 11.9537L39.4146 12.9982H42.2356V3.33883H39.2093V10.1147C38.9176 10.6087 38.4266 10.8557 37.7362 10.8557C36.9328 10.8557 36.531 10.442 36.531 9.61477V3.33883H33.5225V9.59692C33.5225 10.7515 33.7933 11.6383 34.3349 12.2573C34.8825 12.8703 35.6859 13.1768 36.7453 13.1768ZM48.949 10.2843C48.949 10.0284 48.8151 9.82308 48.5473 9.66833C48.2794 9.51359 47.7706 9.3529 47.0207 9.18626C46.2708 9.01961 45.6518 8.80238 45.1638 8.53456C44.6758 8.26079 44.3038 7.93047 44.0479 7.54362C43.792 7.15677 43.664 6.71338 43.664 6.21344C43.664 5.32666 44.03 4.59759 44.7621 4.02624C45.3768 3.54149 46.1509 3.26026 47.0845 3.18255V0.988678H48.5185V3.21113C49.3917 3.31711 50.1215 3.58882 50.7077 4.02624C51.4814 4.60354 51.8683 5.36237 51.8683 6.30272H48.8508C48.8508 5.52901 48.4431 5.14216 47.6278 5.14216C47.3123 5.14216 47.0475 5.23143 46.8332 5.40998C46.619 5.58258 46.5118 5.79981 46.5118 6.06168C46.5118 6.3295 46.6428 6.54673 46.9046 6.71338C47.1665 6.88002 47.5831 7.01691 48.1545 7.12404C48.7318 7.23116 49.2377 7.35912 49.6721 7.50791C51.1243 8.00784 51.8504 8.90356 51.8504 10.195C51.8504 11.0759 51.4576 11.793 50.672 12.3465C50.0855 12.7629 49.3676 13.0227 48.5185 13.1258V15.3284H47.0845V13.1536C46.4774 13.1012 45.9234 12.9601 45.4227 12.7304C44.774 12.4328 44.2681 12.0281 43.905 11.5163C43.542 11.0045 43.3605 10.4658 43.3605 9.90045H46.1726C46.1845 10.3468 46.3333 10.6742 46.619 10.8825C46.9046 11.0848 47.2707 11.186 47.717 11.186C48.1277 11.186 48.4342 11.1027 48.6365 10.936C48.8449 10.7694 48.949 10.5521 48.949 10.2843ZM57.7694 3.33883V0.937373H54.7609V3.33883H53.5289V5.42784H54.7609V10.2218C54.7609 11.2157 55.0078 11.9567 55.5018 12.4447C55.9958 12.9328 56.7606 13.1768 57.7962 13.1768C58.3854 13.1768 58.9508 13.0905 59.4924 12.9179V10.7664C59.29 10.8021 59.04 10.82 58.7425 10.82C58.3556 10.82 58.0967 10.7485 57.9658 10.6057C57.8348 10.4629 57.7694 10.2099 57.7694 9.84688V5.42784H59.3584V3.33883H57.7694ZM66.9915 12.9982C66.8843 12.8018 66.7891 12.5132 66.7058 12.1323C66.1523 12.8286 65.3786 13.1768 64.3847 13.1768C63.4741 13.1768 62.7004 12.903 62.0636 12.3555C61.4268 11.802 61.1083 11.1086 61.1083 10.2754C61.1083 9.22792 61.4952 8.43636 62.2689 7.90072C63.0426 7.36508 64.1675 7.09725 65.6434 7.09725H66.5719V6.58839C66.5719 5.70161 66.188 5.25822 65.4203 5.25822C64.7061 5.25822 64.349 5.60936 64.349 6.31165H61.3405C61.3405 5.37725 61.7362 4.61842 62.5278 4.03517C63.3253 3.45191 64.34 3.16029 65.572 3.16029C66.804 3.16029 67.7771 3.46084 68.4913 4.06195C69.2055 4.66306 69.5715 5.48735 69.5893 6.53483V10.811C69.6012 11.6978 69.7381 12.3763 70 12.8465V12.9982H66.9915ZM65.1078 11.0342C65.4827 11.0342 65.7922 10.9539 66.0362 10.7932C66.2862 10.6325 66.4648 10.451 66.5719 10.2486V8.70418H65.697C64.6495 8.70418 64.1258 9.17435 64.1258 10.1147C64.1258 10.3885 64.218 10.6117 64.4025 10.7843C64.587 10.9509 64.8221 11.0342 65.1078 11.0342Z" fill="black"/>
</svg>
